<svg width="13" height="17" viewBox="0 0 13 17" fill="none" xmlns="http://www.w3.org/2000/svg">
<path id="Vector" d="M2.61444 7.42444C3.65444 9.94 5.33 11.9933 7.37389 13.2822L8.96278 11.3267C9.15778 11.0867 9.44667 11.0067 9.69944 11.1133C10.5083 11.4422 11.3822 11.62 12.2778 11.62C12.675 11.62 13 12.02 13 12.5089V15.6111C13 16.1 12.675 16.5 12.2778 16.5C5.49611 16.5 0 9.73556 0 1.38889C0 0.9 0.325 0.5 0.722222 0.5H3.25C3.64722 0.5 3.97222 0.9 3.97222 1.38889C3.97222 2.5 4.11667 3.56667 4.38389 4.56222C4.46333 4.87333 4.40556 5.22 4.20333 5.46889L2.61444 7.42444Z" fill="#9A0000"/>
</svg>
