<svg width="50" height="50" viewBox="0 0 50 50" fill="none" xmlns="http://www.w3.org/2000/svg">
<g id="map:hindu-temple">
<path id="Vector" d="M27.509 9.57909C28.114 10.1331 28.687 10.6561 29.117 11.3131L29.356 11.6781L29.751 11.4901C30.849 10.9651 31.598 10.1251 32.322 9.31309C32.868 8.70109 33.384 8.12209 34.031 7.68709L34.433 7.41609L34.174 7.00509C33.0585 5.22915 31.5676 3.7191 29.806 2.58109L29.435 2.34009L29.151 2.68009C28.0354 4.01661 26.8098 5.25728 25.487 6.38909L25.198 6.63709L25.36 6.98209C25.88 8.08909 26.708 8.84609 27.509 9.57909ZM33.94 17.1461C37.699 17.1461 40.777 15.6101 42.607 12.8201L42.825 12.4881L42.552 12.2001C42.234 11.8661 41.93 11.5171 41.626 11.1681C40.719 10.1271 39.78 9.05109 38.458 8.33709L37.997 8.08809L37.77 8.56209C36.224 11.7821 33.231 12.4581 30.993 12.4581C27.07 12.4581 22.355 10.2691 20.259 7.47309L18.609 5.27209L19.38 7.91309C20.813 12.8321 27.618 17.1461 33.94 17.1461ZM20.968 25.7791C22.53 22.8071 22.595 19.3271 21.133 16.1721C19.691 13.0581 17.022 10.8631 13.995 10.2971C13.3755 10.1797 12.7465 10.1198 12.116 10.1181C8.44 10.1181 6.034 12.2641 3.708 14.3381C2.861 15.0931 2.061 15.8111 1.207 16.4201L0.609996 16.8561L1.224 17.2771C1.42 17.4041 1.913 18.1531 2.31 18.7231C3.57 20.5331 4.62 22.0001 5.736 22.0001C6.129 22.0001 6.497 21.5341 7.776 20.0961C8.315 19.4911 8.925 18.7221 9.252 18.4631C10.714 17.3021 12.718 15.7121 14.907 15.7121C15.202 15.7121 15.499 15.7411 15.788 15.7991C16.801 16.0021 17.413 16.4711 17.658 17.2341C18.16 18.7971 17.007 21.1931 16.018 22.2511C15.519 22.7861 14.973 23.1711 14.394 23.5791C13.564 24.1641 12.706 24.7701 11.997 25.8351L11.767 26.1811L12.066 26.4711L13.356 27.7291C14.466 28.8161 15.614 29.9401 16.792 31.0021L17.187 31.3581L17.519 30.9421C18.266 30.0051 19.054 29.0081 19.827 27.9891C20.035 28.2981 20.256 28.6141 20.483 28.9381C22.188 31.3761 24.121 34.1391 22.86 37.7501C21.921 40.4411 18.75 42.1931 15.178 41.9361C10.954 41.6401 7.194 38.0341 3.681 30.9121C3.462 30.4671 3.282 29.9681 3.108 29.4851C2.701 28.3551 2.279 27.1871 1.297 26.4611L0.311996 25.7331L0.505996 26.9421C1.537 33.3741 4.559 39.5811 8.591 43.5461C11.03 45.9481 15.032 47.5001 18.786 47.5001C23.123 47.5001 27.77 45.2461 27.802 38.9201C27.83 32.9951 24.171 29.1471 21.23 26.0551L20.968 25.7791ZM48.337 20.3461C47.172 18.1791 42.792 16.5991 40.595 17.0801C37.267 17.8061 34.934 19.6891 32.875 21.3511C30.768 23.0531 28.947 24.5221 26.517 24.5221C25.787 24.5221 25.04 24.3921 24.234 24.1261L22.954 23.7031L23.648 24.8581C25.242 27.5111 27.103 28.8011 29.337 28.8011C31.152 28.8001 33.01 27.9301 34.851 26.8031L35.264 28.0271C36.199 30.7961 40.269 34.9031 43.974 34.9031L44.196 34.8971C45.813 34.8251 47.163 33.9141 48.101 32.2601C50.023 28.8731 49.806 23.0741 48.337 20.3461ZM37.396 25.1321C40.128 23.2751 42.998 21.3681 45.349 21.7831C46.372 23.5611 45.954 25.0921 45.41 26.0761C44.372 27.9491 42.098 29.2581 39.878 29.2581C38.832 29.2581 37.331 28.9601 36.119 27.5421L35.266 26.5451C35.979 26.0941 36.69 25.6111 37.396 25.1321Z" fill="black"/>
</g>
</svg>
