<svg width="50" height="50" viewBox="0 0 50 50" fill="none" xmlns="http://www.w3.org/2000/svg">
<g id="teenyicons:school-outline">
<path id="Vector" d="M25 15L38.3333 21.6667V48.3333H11.6667V21.6667L25 15ZM25 15V0M0 48.3333H50M5 48.3333V28.3333H11.6667M45 48.3333V28.3333H38.3333M21.6667 48.3333V38.3333H28.3333V48.3333M25 1.66667H35V8.33333H25M25 31.6667C24.1159 31.6667 23.2681 31.3155 22.643 30.6904C22.0179 30.0652 21.6667 29.2174 21.6667 28.3333C21.6667 27.4493 22.0179 26.6014 22.643 25.9763C23.2681 25.3512 24.1159 25 25 25C25.8841 25 26.7319 25.3512 27.357 25.9763C27.9821 26.6014 28.3333 27.4493 28.3333 28.3333C28.3333 29.2174 27.9821 30.0652 27.357 30.6904C26.7319 31.3155 25.8841 31.6667 25 31.6667Z" stroke="black"/>
</g>
</svg>
