<svg width="16" height="17" viewBox="0 0 16 17" fill="none" xmlns="http://www.w3.org/2000/svg">
<path d="M8 15.9375C6.61553 15.9375 5.26216 15.5013 4.11101 14.6841C2.95987 13.8668 2.06266 12.7052 1.53285 11.3462C1.00303 9.98719 0.86441 8.49175 1.13451 7.04902C1.4046 5.60629 2.07129 4.28105 3.05026 3.2409C4.02922 2.20074 5.2765 1.49239 6.63437 1.20541C7.99224 0.918435 9.3997 1.06572 10.6788 1.62865C11.9579 2.19158 13.0511 3.14486 13.8203 4.36795C14.5895 5.59104 15 7.02901 15 8.5C15 10.4726 14.2625 12.3643 12.9497 13.7591C11.637 15.1539 9.85652 15.9375 8 15.9375ZM8 2.125C6.81332 2.125 5.65328 2.49889 4.66658 3.19938C3.67989 3.89988 2.91085 4.89552 2.45673 6.0604C2.0026 7.22528 1.88378 8.50707 2.11529 9.7437C2.3468 10.9803 2.91825 12.1162 3.75736 13.0078C4.59648 13.8994 5.66558 14.5065 6.82946 14.7525C7.99335 14.9985 9.19975 14.8722 10.2961 14.3897C11.3925 13.9072 12.3295 13.0901 12.9888 12.0418C13.6481 10.9934 14 9.76086 14 8.5C14 6.80925 13.3679 5.18774 12.2426 3.9922C11.1174 2.79665 9.5913 2.125 8 2.125Z" fill="#9A0000"/>
<path d="M10.295 11.6875L7.5 8.71781V3.71875H8.5V8.27688L11 10.9384L10.295 11.6875Z" fill="#9A0000"/>
</svg>
