<svg width="13" height="17" viewBox="0 0 13 17" fill="none" xmlns="http://www.w3.org/2000/svg">
<path id="Vector" d="M6.5 8.075C5.88432 8.075 5.29385 7.85112 4.8585 7.4526C4.42315 7.05409 4.17857 6.51359 4.17857 5.95C4.17857 5.38642 4.42315 4.84591 4.8585 4.4474C5.29385 4.04888 5.88432 3.825 6.5 3.825C7.11568 3.825 7.70615 4.04888 8.1415 4.4474C8.57685 4.84591 8.82143 5.38642 8.82143 5.95C8.82143 6.22906 8.76138 6.50539 8.64472 6.7632C8.52806 7.02102 8.35706 7.25528 8.1415 7.4526C7.92593 7.64993 7.67002 7.80645 7.38837 7.91324C7.10672 8.02004 6.80485 8.075 6.5 8.075ZM6.5 0C4.77609 0 3.12279 0.626873 1.90381 1.74271C0.684819 2.85856 0 4.37196 0 5.95C0 10.4125 6.5 17 6.5 17C6.5 17 13 10.4125 13 5.95C13 4.37196 12.3152 2.85856 11.0962 1.74271C9.87721 0.626873 8.22391 0 6.5 0Z" fill="#9A0000"/>
</svg>
